<svg width="40" height="40" fill="none" xmlns="http://www.w3.org/2000/svg"><g clip-path="url(#clip0)"><path d="M39.69 15.93L28.859 5.097a1.058 1.058 0 00-1.497 0l-5.253 5.254-.001.002-2.454 2.454-1.766-1.766-.011-.012-5.252-5.254a1.058 1.058 0 00-1.496 0L.31 16.591a1.058 1.058 0 000 1.496l5.254 5.254a1.058 1.058 0 001.496 0l1.049-1.049 1.028 1.029-.705.706a1.058 1.058 0 000 1.495l8.524 8.528a1.059 1.059 0 001.497 0l.705-.706 1.56 1.56a1.058 1.058 0 001.496 0l3.968-3.968.009-.008.008-.01 2.51-2.509.002-.003.003-.003 2.521-2.52a1.058 1.058 0 000-1.497l-1.56-1.56 1.707-1.709 1.561 1.562a1.055 1.055 0 001.497 0l5.251-5.253a1.058 1.058 0 000-1.495zM2.555 17.34l9.321-9.322 3.757 3.758-.708.707-7.564 7.565-.004.005-1.044 1.044-3.758-3.758zm15.15 14.465l-7.029-7.03.704-.704.003-.002.002-.003.702-.702 7.029 7.03-1.411 1.412zm3.761.855l-.812-.813.706-.706a1.058 1.058 0 000-1.496l-8.525-8.525a1.057 1.057 0 00-1.497 0l-.704.705-1.029-1.029 5.987-5.987 1.536-1.537 1.03 1.03-4.342 4.341a1.058 1.058 0 000 1.497l3.405 3.403a1.059 1.059 0 001.496 0l4.339-4.34 4.374 4.373.028.025 1.533 1.534-1.027 1.027-2.67-2.671a1.058 1.058 0 10-1.497 1.495l2.671 2.672-1.025 1.025-2.672-2.67a1.058 1.058 0 10-1.495 1.495l2.67 2.672-2.48 2.48zm8.42-13.037l-1.707 1.707-.363-.362c-.008-.009-.017-.016-.026-.024l-3.987-3.986a1.057 1.057 0 00-1.496 0l-4.339 4.34-1.908-1.907 4.34-4.34.002-.001.001-.002 2.454-2.454.95.949 6.078 6.08zm3.806.811l-8.076-8.074-1.263-1.262L28.11 7.34l9.337 9.339-3.756 3.756z" fill="#2CC9CC"/></g><defs><clipPath id="clip0"><path fill="#fff" d="M0 0h40v40H0z"/></clipPath></defs></svg>