<svg width="30" height="38" fill="none" xmlns="http://www.w3.org/2000/svg"><path d="M23.71 11.21c-5.363 3.288-9.228 7.44-10.798 9.285l-4.03-3.157c-.106-.077-2.318 1.887-2.26 1.948l7.34 7.462a.27.27 0 00.208.088c.015 0 .037 0 .057-.004a.293.293 0 00.213-.183c1.182-3.022 5.086-9.35 10.071-13.94a.295.295 0 00.071-.33c-.001-.001-.797-1.214-.872-1.169z" fill="#2CC9CC"/><path d="M28.523 4.606C17.411 4.606 15.531.388 15.514.35a.56.56 0 00-.51-.349h-.01a.57.57 0 00-.513.34c-.013.044-1.934 4.266-13.004 4.266a.553.553 0 00-.554.553v18.9c0 7.738 13.29 13.649 13.851 13.897A.54.54 0 0015 38a.54.54 0 00.223-.044c.567-.248 13.854-6.16 13.854-13.896V5.16a.557.557 0 00-.554-.554zM26.02 22.96c0 6.054-10.405 10.685-10.847 10.877a.389.389 0 01-.174.037.39.39 0 01-.175-.037c-.438-.192-10.846-4.823-10.846-10.877V8.166c0-.238.193-.435.434-.435 8.667 0 10.17-3.304 10.184-3.337a.44.44 0 01.4-.267h.008c.177.002.334.11.398.274.014.03 1.486 3.33 10.184 3.33.24 0 .432.197.432.435l.002 14.794z" fill="#2CC9CC"/></svg>