<svg width="39" height="39" fill="none" xmlns="http://www.w3.org/2000/svg"><path d="M38.33 18.653c-.079-.1-1.968-2.47-5.208-4.85-4.33-3.181-9.04-4.862-13.622-4.862-4.582 0-9.293 1.68-13.622 4.861-3.24 2.38-5.13 4.751-5.208 4.85L0 19.5l.67.847c.079.1 1.968 2.47 5.208 4.85 4.33 3.181 9.04 4.862 13.622 4.862 4.582 0 9.293-1.681 13.622-4.861 3.24-2.38 5.13-4.751 5.208-4.85L39 19.5l-.67-.847zm-6.888 4.388c-2.677 1.955-6.921 4.286-11.942 4.286-5.02 0-9.266-2.33-11.942-4.286A28.698 28.698 0 013.559 19.5c.785-.843 2.162-2.2 3.998-3.541 2.677-1.956 6.922-4.286 11.943-4.286 5.02 0 9.265 2.33 11.942 4.286a28.706 28.706 0 013.999 3.54c-.785.844-2.162 2.2-3.999 3.542z" fill="#2CC9CC"/><path d="M19.5 13.722c-1.402 0-2.687.5-3.687 1.33a1.907 1.907 0 11-1.937 3.124 5.777 5.777 0 105.623-4.453z" fill="#2CC9CC"/></svg>