<svg width="34" height="34" fill="none" xmlns="http://www.w3.org/2000/svg"><path d="M17 0C7.61 0 0 7.608 0 17c0 9.388 7.61 17 17 17 9.388 0 17-7.612 17-17 0-9.392-7.61-17-16.998-17zm0 31.227c-7.862 0-14.23-6.369-14.23-14.228S9.139 2.77 17 2.77c7.856 0 14.228 6.371 14.228 14.23.001 7.86-6.372 14.228-14.227 14.228z" fill="#2CC9CC"/><path d="M19.375 12.828h-4.78v.008h-1.778v2.777h1.779v9.921h-1.888v2.655h1.888v.018h4.779v-.018h1.563v-2.655h-1.563V12.828zm-2.422-1.888c1.605 0 2.578-1.068 2.578-2.39-.031-1.35-.974-2.385-2.514-2.385-1.538 0-2.545 1.034-2.545 2.385-.002 1.322.974 2.39 2.48 2.39z" fill="#2CC9CC"/></svg>