<svg width="17" height="17" fill="none" xmlns="http://www.w3.org/2000/svg"><path d="M15.957 3.954h-3.194C12.574 1.946 10.735.365 8.5.365s-4.074 1.58-4.263 3.59H1.043a.676.676 0 00-.678.677v11.325c0 .376.302.678.678.678h14.914a.676.676 0 00.678-.678V4.632a.676.676 0 00-.678-.678zM8.5 1.72c1.614 0 2.922 1.155 2.922 2.573 0 .936-1.577 3.135-2.922 4.698C7.152 7.424 5.578 5.23 5.578 4.293 5.578 2.875 6.89 1.72 8.5 1.72zm6.78 13.56H1.72V5.31h2.71c.713 1.975 3.044 4.575 3.569 5.162.355.395.84.176.999 0 .531-.58 2.859-3.184 3.57-5.163h2.709v9.971h.003z" fill="#20E4A4"/><path d="M9.402 3.875a.676.676 0 00-.677-.677h-.451a.676.676 0 00-.678.677c0 .375.302.677.678.677h.451a.676.676 0 00.677-.677z" fill="#20E4A4"/></svg>