<svg width="40" height="40" fill="none" xmlns="http://www.w3.org/2000/svg"><path d="M32.976 7.508c-.024.828.586 1.633 1.422 1.633 1.03 0 1.671-.602 1.757-1.414.094-.836-.172-1.633-.765-2.297-2.055-2.305-8.329-2.633-10.61-2.68v3.195c3.742.078 7.516.797 8.196 1.563zM5.593 9.133c.844 0 1.453-.805 1.422-1.633.68-.766 4.453-1.484 8.195-1.563V2.75c-2.273.04-8.554.367-10.601 2.672-.594.664-.852 1.46-.766 2.297.086.82.719 1.414 1.75 1.414zm27.383 4.703a1.59 1.59 0 001.422 1.633 1.59 1.59 0 001.757-1.414c.094-.836-.172-1.633-.765-2.297-2.055-2.305-8.329-2.633-10.61-2.68v3.195c3.742.079 7.524.797 8.196 1.563zM4.61 11.758c-.587.664-.852 1.46-.767 2.297.086.82.813 1.515 1.758 1.414a1.583 1.583 0 001.422-1.633c.68-.766 4.461-1.484 8.195-1.563V9.078c-2.28.047-8.562.375-10.609 2.68zm2.413 8.414c.68-.766 4.477-1.492 8.227-1.563-.024-.18-.031-3.195-.031-3.195-2.282.04-8.555.367-10.61 2.68-.586.664-.851 1.46-.766 2.297.086.82.782 1.422 1.586 1.422.961 0 1.618-.82 1.594-1.641zm28.375-2.078c-2.055-2.305-8.336-2.633-10.61-2.68 0 0-.015 3.016-.03 3.195 3.75.07 7.546.797 8.226 1.563-.023.828.633 1.64 1.594 1.64.804 0 1.5-.609 1.586-1.421.085-.844-.18-1.633-.766-2.297zm-15.399 1.57a1.59 1.59 0 001.594-1.594V2.453A1.59 1.59 0 0019.999.86a1.59 1.59 0 00-1.594 1.594V18.07a1.59 1.59 0 001.594 1.594zm-.773 11.484h1.547a1.59 1.59 0 001.593-1.593 1.59 1.59 0 00-1.593-1.594h-1.547a1.59 1.59 0 00-1.594 1.594 1.59 1.59 0 001.594 1.593z" fill="#2CC9CC"/><path d="M28.117 30.195c-2.22 0-4.117 1.196-4.867 2.883h-6.5c-.75-1.68-2.649-2.883-4.868-2.883-2.875 0-5.218 2.008-5.218 4.477 0 2.469 2.343 4.476 5.218 4.476 2.22 0 4.117-1.195 4.868-2.882h6.5c.75 1.68 2.648 2.882 4.867 2.882 2.875 0 5.219-2.007 5.219-4.476 0-2.477-2.344-4.477-5.22-4.477zm-8.891-4.703h1.547a1.59 1.59 0 001.593-1.594 1.59 1.59 0 00-1.593-1.593h-1.547a1.59 1.59 0 00-1.594 1.593 1.59 1.59 0 001.594 1.594z" fill="#2CC9CC"/></svg>